<?xml version="1.0" standalone="no"?>
<!DOCTYPE svg PUBLIC "-//W3C//DTD SVG 20010904//EN"
 "http://www.w3.org/TR/2001/REC-SVG-20010904/DTD/svg10.dtd">
<svg version="1.0" xmlns="http://www.w3.org/2000/svg"
 width="832.000000pt" height="832.000000pt" viewBox="0 0 832.000000 832.000000"
 preserveAspectRatio="xMidYMid meet">
<metadata>
Created by potrace 1.14, written by Peter Selinger 2001-2017
</metadata>
<g transform="translate(0.000000,832.000000) scale(0.100000,-0.100000)"
fill="#000000" stroke="none">
<path d="M4135 8261 c-6 -5 -41 -26 -80 -46 -38 -21 -77 -43 -85 -50 -8 -7
-25 -16 -37 -19 -13 -4 -23 -12 -23 -17 0 -5 -9 -9 -19 -9 -11 0 -21 -4 -23
-8 -1 -4 -25 -21 -53 -36 -27 -16 -68 -38 -90 -51 -34 -19 -188 -107 -235
-135 -137 -79 -191 -110 -194 -110 -2 0 -54 -29 -115 -65 -62 -36 -116 -65
-122 -65 -5 0 -9 -4 -9 -9 0 -5 -10 -13 -22 -17 -12 -3 -50 -24 -85 -45 -35
-22 -68 -39 -73 -39 -6 0 -10 -4 -10 -8 0 -4 -12 -13 -27 -19 -16 -7 -51 -25
-79 -41 -132 -76 -335 -193 -379 -217 -28 -16 -62 -36 -76 -46 -14 -10 -29
-16 -33 -12 -3 3 -6 2 -6 -4 0 -6 -8 -13 -18 -16 -9 -4 -39 -20 -67 -37 -27
-17 -62 -35 -77 -41 -16 -6 -28 -15 -28 -20 0 -5 -4 -9 -9 -9 -5 0 -49 -23
-98 -51 -48 -28 -117 -67 -153 -87 -36 -19 -72 -40 -80 -47 -8 -7 -25 -16 -37
-19 -13 -4 -23 -12 -23 -17 0 -5 -9 -9 -19 -9 -11 0 -21 -4 -23 -8 -3 -7 -25
-21 -143 -87 -22 -12 -72 -41 -112 -63 -39 -23 -87 -50 -106 -61 -71 -40 -82
-46 -95 -59 -7 -7 -18 -10 -23 -7 -5 4 -9 1 -9 -4 0 -6 -6 -11 -14 -11 -8 0
-16 -3 -18 -7 -1 -5 -23 -18 -48 -31 -25 -13 -58 -32 -75 -42 -16 -10 -46 -27
-65 -38 -51 -28 -98 -55 -160 -91 -30 -18 -62 -36 -70 -40 -8 -5 -41 -24 -72
-42 l-58 -33 0 -2058 c0 -1951 1 -2059 17 -2066 10 -4 34 -17 53 -29 19 -12
39 -22 44 -22 5 1 12 -3 15 -8 8 -10 80 -53 103 -60 10 -3 18 -9 18 -14 0 -5
4 -9 10 -9 5 0 48 -22 96 -50 48 -27 89 -50 91 -50 3 0 17 -8 31 -19 26 -17
82 -50 167 -96 65 -36 90 -50 95 -55 3 -3 16 -11 30 -18 14 -7 41 -22 60 -33
19 -11 62 -35 95 -54 91 -52 146 -83 190 -109 22 -12 63 -35 90 -51 28 -15 61
-35 75 -44 14 -9 39 -23 55 -31 17 -8 41 -22 55 -31 14 -9 51 -31 82 -47 81
-44 102 -56 108 -62 5 -5 48 -29 143 -79 32 -17 64 -36 70 -42 20 -17 167 -98
167 -91 0 3 10 -3 23 -14 12 -11 40 -29 62 -39 22 -11 47 -25 55 -31 8 -7 38
-24 65 -39 28 -15 84 -47 125 -71 41 -24 86 -49 100 -56 14 -7 27 -15 30 -18
3 -3 16 -11 30 -18 14 -7 43 -23 65 -37 22 -13 54 -31 70 -39 33 -17 79 -43
173 -99 35 -20 67 -37 73 -37 5 0 9 -3 9 -7 0 -5 10 -13 23 -18 32 -16 111
-59 117 -65 3 -3 16 -11 30 -18 56 -27 160 -88 172 -100 6 -6 15 -12 20 -12 4
0 31 -14 60 -31 29 -18 78 -45 108 -62 92 -51 104 -57 135 -77 73 -46 92 -53
119 -38 13 7 46 24 73 38 26 14 50 28 51 33 2 4 10 7 18 7 8 0 14 5 14 11 0 5
4 8 9 4 5 -3 16 2 24 10 9 8 18 15 21 15 3 0 35 18 71 40 36 22 69 40 74 40 5
0 16 6 23 12 8 7 23 18 33 24 11 6 40 22 65 36 25 14 109 62 187 106 78 45
146 82 152 82 6 0 11 4 11 8 0 5 28 23 63 41 34 17 105 57 157 87 52 31 124
72 160 92 36 20 85 48 109 64 25 15 48 28 52 28 5 0 28 13 52 30 25 16 50 30
55 30 6 0 17 6 24 13 11 10 31 22 123 71 11 6 22 14 25 17 3 3 31 18 63 34 31
16 57 33 57 37 0 4 6 8 13 8 7 0 33 13 58 28 24 16 73 44 109 64 36 20 105 59
153 87 49 28 93 51 98 51 5 0 9 5 9 10 0 6 4 10 9 10 8 0 164 87 311 174 25
15 57 31 73 37 15 6 27 15 27 20 0 5 4 9 9 9 5 0 76 38 157 85 81 47 151 85
156 85 4 0 8 5 8 11 0 5 4 8 9 4 5 -3 16 2 24 10 9 8 18 15 21 15 3 0 35 18
71 40 36 22 69 40 74 40 5 0 16 6 23 13 11 10 31 22 123 71 11 6 22 14 25 18
3 4 17 11 30 17 14 6 48 24 75 41 28 17 58 33 68 37 9 3 17 9 17 14 0 5 3 8 8
7 4 -1 17 3 30 10 l22 13 0 2059 0 2060 -47 25 c-89 48 -128 70 -133 75 -5 5
-26 17 -97 56 -99 55 -131 73 -183 104 -30 18 -84 49 -120 68 -36 19 -72 40
-80 47 -8 7 -22 15 -30 18 -8 4 -37 20 -65 36 -27 17 -63 37 -80 46 -16 8 -57
31 -90 50 -33 20 -76 43 -95 53 -19 9 -40 22 -46 27 -6 6 -28 19 -50 30 -21
11 -40 23 -42 28 -2 4 -8 7 -12 7 -5 0 -37 17 -72 37 -116 69 -143 84 -170 96
-16 6 -28 15 -28 19 0 4 -5 8 -10 8 -6 0 -40 18 -76 40 -36 22 -68 40 -69 40
-2 0 -32 17 -67 37 -76 45 -112 65 -158 89 -19 10 -37 20 -40 23 -3 4 -21 15
-40 25 -19 10 -78 43 -130 74 -128 73 -158 90 -205 115 -22 12 -42 24 -45 27
-3 3 -16 11 -30 18 -14 7 -41 22 -60 33 -19 12 -53 31 -75 42 -22 12 -47 27
-55 33 -8 6 -44 27 -80 46 -36 20 -90 50 -120 68 -30 18 -84 49 -120 68 -36
19 -72 40 -80 47 -8 7 -30 18 -47 26 -18 8 -33 17 -33 21 0 5 -5 8 -10 8 -6 0
-27 10 -48 23 -41 26 -164 95 -199 111 -13 6 -23 14 -23 19 0 4 -4 7 -9 7 -7
0 -164 86 -201 110 -8 6 -26 16 -40 22 -14 7 -27 15 -30 18 -11 11 -50 30 -63
30 -7 0 -17 -4 -22 -9z"/>
</g>
</svg>
