<svg xmlns="http://www.w3.org/2000/svg" xmlns:svg="http://www.w3.org/2000/svg" width="29"
    height="25" viewBox="0 0 29 25" version="1.1" id="svg2" xml:space="preserve"><defs id="defs2"/><path fill="#ffffff" stroke="#000000" stroke-width="1.05059" d="M 16.852211,0.63985883 C 13.042376,0.23085233 9.4535542,0.91252983 6.0646942,2.674404 3.0336652,4.404816 1.1287475,7.2154249 0.676198,9.1975329 0.3920391,10.718198 -0.0605105,15.731149 5.3700838,19.223436 c 3.5993464,2.128931 7.4723292,2.894507 11.6294692,2.317704 2.831066,1.247995 5.7779,2.202342 8.78788,2.915481 0.231537,0.04195 0.06314,-0.157308 -0.03159,-0.251695 -1.305026,-1.237507 -2.357467,-2.663786 -3.146797,-4.278838 1.50499,-0.94386 2.831066,-2.086981 3.988749,-3.43985 2.6732,-3.932754 2.494286,-7.7186861 -0.557792,-11.3577952 C 23.451011,2.6324545 20.398932,1.1432515 16.852207,0.63985883 Z" id="path1" style="display:none"/><style type="text/css" id="style1">.st0{fill-rule:evenodd;clip-rule:evenodd;}</style><path style="clip-rule:evenodd;opacity:0.742;fill-rule:evenodd;stroke-width:0.217495;image-rendering:optimizeQuality;shape-rendering:geometricPrecision;text-rendering:geometricPrecision" fill="#0a0602" d="m 13.65535,0.01348919 c 1.017552,-0.0360636 2.032538,1.8517e-4 3.044936,0.10874819 0.662708,0.41868073 1.025186,1.03491682 1.087477,1.84871092 -0.197638,1.0171169 -0.306386,2.0321027 -0.326244,3.0449356 1.345232,0.4656789 1.961462,1.3718962 1.848711,2.7186931 0.901236,0.2752621 1.734984,0.6739962 2.501198,1.1962242 0.441537,1.3875128 1.166515,2.6199718 2.174954,3.6974218 0.930837,1.536214 1.220823,3.203665 0.869982,5.002395 -2.317566,6.215802 -6.703731,8.499504 -13.158474,6.851106 -2.0951543,-0.934577 -3.7988612,-2.348298 -5.1111416,-4.241161 -0.1449979,-1.449977 -0.1449979,-2.899931 0,-4.349908 1.0760587,-1.641982 2.3085397,-3.16445 3.6974216,-4.567404 0.173453,-0.382531 0.137218,-0.74503 -0.108747,-1.087477 C 7.7240537,9.1745711 7.5790492,7.8333632 9.7404317,6.2121091 9.3013087,5.5070537 9.1200482,4.7458192 9.1966935,3.9284067 10.555931,2.4403469 12.042163,1.1353634 13.65535,0.01348919 Z" id="path11"/><path style="clip-rule:evenodd;opacity:1;fill-rule:evenodd;stroke-width:0.217495;image-rendering:optimizeQuality;shape-rendering:geometricPrecision;text-rendering:geometricPrecision" fill="#87591f" d="m 16.917781,1.318462 c 0.261342,1.1286706 0.261342,2.2886385 0,3.4799261 -0.176998,0.4634836 -0.285746,0.9709864 -0.326243,1.5224689 -0.03671,-1.1588814 -4.57e-4,-2.31885 0.108748,-3.4799276 0.107138,-0.5014573 0.179629,-1.0089607 0.217495,-1.5224674 z" id="path33"/><path style="clip-rule:evenodd;opacity:1;fill-rule:evenodd;stroke-width:0.217495;image-rendering:optimizeQuality;shape-rendering:geometricPrecision;text-rendering:geometricPrecision" fill="#ba8f56" d="m 16.917781,1.318462 c -0.03787,0.5135067 -0.110357,1.0210101 -0.217495,1.5224674 -0.561922,1.2841807 -1.10566,2.5891528 -1.631216,3.9149173 -0.995933,0.382901 -1.829659,0.9991311 -2.501197,1.8487117 -0.622777,0.3042549 -1.275263,0.5217497 -1.95746,0.6524865 0.3625,0.072487 0.724978,0.1450045 1.087477,0.2174958 -0.50237,0.108008 -1.009875,0.1442646 -1.522467,0.108747 C 8.8793238,9.3095921 8.5530809,8.5846142 9.1966935,7.4083333 9.6081944,7.0703024 9.9344379,6.6715466 10.175423,6.2121091 9.7034795,5.3840381 9.6672231,4.5503132 10.066675,3.7109118 c 1.216474,-1.2171915 2.557702,-2.2684124 4.023666,-3.1536839 0.79749,-0.14499784 1.594958,-0.14499784 2.392449,0 0.320436,0.15432603 0.465418,0.4080716 0.434991,0.7612341 z" id="path38"/><path style="clip-rule:evenodd;opacity:1;fill-rule:evenodd;stroke-width:0.217495;image-rendering:optimizeQuality;shape-rendering:geometricPrecision;text-rendering:geometricPrecision" fill="#6d4b31" d="m 15.612809,0.88347088 c -0.289988,0 -0.579996,0 -0.869983,0 -0.273782,0.98829932 -0.418786,2.00328522 -0.43499,3.04493582 0.0059,0.5632046 0.07843,1.1069432 0.217495,1.6312158 -0.145004,0.1450045 -0.289986,0.1450045 -0.43499,0 -0.13139,-0.5378013 -0.348885,-0.8640441 -0.652487,-0.9787293 -1.003002,-0.2442914 -2.017966,-0.2442914 -3.044936,0 0.908479,-1.7408769 2.285942,-3.0095929 4.132413,-3.80616995 0.410393,-0.16956169 0.772892,-0.13331355 1.087478,0.10874763 z" id="path39"/><path style="clip-rule:evenodd;opacity:1;fill-rule:evenodd;stroke-width:0.217495;image-rendering:optimizeQuality;shape-rendering:geometricPrecision;text-rendering:geometricPrecision" fill="#5f4029" d="m 11.2629,4.7983881 c 0.584475,-0.035688 1.16447,5.676e-4 1.739963,0.1087479 -0.797491,0.3987351 -1.594959,0.797491 -2.39245,1.1962251 C 10.537922,5.9583567 10.465409,5.8133739 10.392918,5.6683704 10.596711,5.2794888 10.886698,4.9894799 11.2629,4.7983881 Z" id="path40"/><path style="clip-rule:evenodd;opacity:1;fill-rule:evenodd;stroke-width:0.217495;image-rendering:optimizeQuality;shape-rendering:geometricPrecision;text-rendering:geometricPrecision" fill="#533724" d="m 15.612809,0.88347088 c 0.262712,0.15966572 0.552721,0.23216562 0.869981,0.21749572 0.03484,0.3695683 -0.0014,0.7320676 -0.108748,1.087477 -0.518334,1.1189706 -0.953326,2.2789392 -1.304972,3.4799268 -0.228175,0.4605465 -0.554418,0.8230458 -0.978729,1.0874763 -0.137262,-0.52947 -0.354758,-1.0369521 -0.652487,-1.522467 0,-0.2174958 0,-0.4349916 0,-0.6524865 0.303602,0.1146852 0.521097,0.440928 0.652487,0.9787293 0.145004,0.1450045 0.289986,0.1450045 0.43499,0 -0.139067,-0.5242726 -0.21158,-1.0680112 -0.217495,-1.6312158 0.0162,-1.0416506 0.161208,-2.0566365 0.43499,-3.04493582 0.289987,0 0.579995,0 0.869983,0 z" id="path41"/><path style="clip-rule:evenodd;opacity:1;fill-rule:evenodd;stroke-width:0.217495;image-rendering:optimizeQuality;shape-rendering:geometricPrecision;text-rendering:geometricPrecision" fill="#44281b" d="m 16.700286,2.8409294 c -0.109205,1.1610776 -0.145461,2.3210462 -0.108748,3.4799276 0.0405,-0.5514825 0.149245,-1.0589853 0.326243,-1.5224689 0,0.2174958 0,0.4349916 0,0.6524865 0,0.3624993 0,0.7249779 0,1.0874772 -1.044783,0.8592158 -2.13226,1.6567058 -3.262431,2.3924494 -0.145005,0 -0.289987,0 -0.434992,0 -0.411327,0.329789 -0.846318,0.6197753 -1.304972,0.8699823 -0.31726,-0.014656 -0.607269,0.057832 -0.869981,0.2174945 C 10.755418,9.8732749 10.465409,9.7282922 10.175423,9.5832877 10.688015,9.6188053 11.19552,9.5825657 11.69789,9.4745407 11.335391,9.4020494 10.972913,9.3295354 10.610413,9.2570449 11.29261,9.1263081 11.945096,8.9088133 12.567873,8.6045584 13.239411,7.7549778 14.073137,7.1387477 15.06907,6.7558467 15.594626,5.4300822 16.138364,4.1251101 16.700286,2.8409294 Z" id="path42"/><path style="clip-rule:evenodd;opacity:1;fill-rule:evenodd;stroke-width:0.217495;image-rendering:optimizeQuality;shape-rendering:geometricPrecision;text-rendering:geometricPrecision" fill="#69492f" d="m 13.437854,5.2333797 c 0.297729,0.4855149 0.515225,0.992997 0.652487,1.522467 -0.71741,0.436014 -1.369895,0.9797526 -1.95746,1.6312159 C 11.478177,8.5699766 10.82569,8.7512159 10.175423,8.9308012 9.3982683,8.9467012 9.144516,8.5842226 9.4141887,7.8433249 10.480982,6.5657998 11.822189,5.6958184 13.437854,5.2333797 Z" id="path43"/><path style="clip-rule:evenodd;opacity:1;fill-rule:evenodd;stroke-width:0.217495;image-rendering:optimizeQuality;shape-rendering:geometricPrecision;text-rendering:geometricPrecision" fill="#884f19" d="m 16.917781,5.4508746 c 1.341273,0.1381314 1.848776,0.8268744 1.522468,2.0662066 0.05635,0.2743272 0.201357,0.4918231 0.43499,0.6524865 0.871744,0.241985 1.70547,0.5682288 2.501199,0.9787293 0.07249,0.4349907 0.145003,0.869981 0.217494,1.304973 0.37133,0.334398 0.697574,0.696876 0.97873,1.087476 -0.145005,0 -0.217495,0.07249 -0.217495,0.217496 -0.0725,0 -0.145005,0 -0.217496,0 C 22.085991,11.344044 21.868499,11.054057 21.485184,10.88826 21.412694,10.743256 21.340181,10.598274 21.26769,10.45327 21.31976,10.025412 21.24727,9.6266781 21.050195,9.2570449 20.082513,8.971647 19.176276,8.5729128 18.331501,8.0608198 18.284133,7.4243848 18.175382,6.8081548 18.005258,6.2121091 17.439465,5.6687404 17.149479,5.7774874 17.135276,6.5383518 c -0.07249,0 -0.145004,0 -0.217495,0 0,-0.3624993 0,-0.7249779 0,-1.0874772 z" id="path44"/><path style="clip-rule:evenodd;opacity:1;fill-rule:evenodd;stroke-width:0.217495;image-rendering:optimizeQuality;shape-rendering:geometricPrecision;text-rendering:geometricPrecision" fill="#812828" d="m 16.917781,6.5383518 c 0.07249,0 0.145004,0 0.217495,0 0.401583,-0.060418 0.691592,0.084565 0.869982,0.4349908 -0.434991,0.1450044 -0.869982,0.2899872 -1.304972,0.4349907 0.57932,0.2170176 1.086825,0.5432603 1.522467,0.9787293 -0.486993,0.3873387 -0.994476,0.7135815 -1.522467,0.9787302 -0.513507,-0.037872 -1.021011,-0.1103576 -1.522468,-0.2174958 0,0.2174958 0,0.4349907 0,0.6524865 -0.3625,0 -0.724978,0 -1.087477,0 0.009,0.5108745 -0.244661,0.8008615 -0.761235,0.8699815 -0.531385,-0.115359 -1.002632,-0.332855 -1.41372,-0.652487 0,-0.072487 0,-0.1450031 0,-0.2174945 0.458654,-0.250207 0.893645,-0.5401933 1.304972,-0.8699823 0.01276,0.4833628 0.266498,0.7008577 0.761235,0.6524865 0.305319,-0.00198 0.55905,-0.1107709 0.761233,-0.3262428 C 14.437311,8.9809996 14.074812,8.8722517 13.65535,8.9308012 14.785521,8.1950576 15.872998,7.3975676 16.917781,6.5383518 Z" id="path45"/><path style="clip-rule:evenodd;opacity:1;fill-rule:evenodd;stroke-width:0.217495;image-rendering:optimizeQuality;shape-rendering:geometricPrecision;text-rendering:geometricPrecision" fill="#5c1f1c" d="m 21.26769,10.45327 c -0.440929,0.03525 -0.87592,-9.41e-4 -1.304973,-0.108748 -0.504046,-0.4334034 -1.084042,-0.6871548 -1.739964,-0.7612343 0.403346,1.0045683 0.475837,2.0195323 0.217496,3.0449353 -0.449085,-0.0038 -0.884075,-0.07623 -1.304973,-0.217495 0.03595,-0.800752 -3.05e-4,-1.598243 -0.108747,-2.39245 C 16.976046,9.7491278 16.8673,9.531632 16.700286,9.3657928 17.228277,9.1006441 17.73576,8.7744013 18.222753,8.3870626 17.787111,7.9515936 17.279606,7.6253509 16.700286,7.4083333 17.135276,7.2633298 17.570267,7.118347 18.005258,6.9733426 17.826868,6.6229146 17.536859,6.4779318 17.135276,6.5383518 c 0.01421,-0.7608644 0.304189,-0.8696114 0.869982,-0.3262427 0.170124,0.5960457 0.278872,1.2122757 0.326243,1.8487107 0.844775,0.512093 1.751012,0.9108272 2.718694,1.1962251 0.197071,0.3696332 0.269563,0.7683671 0.217495,1.1962251 z" id="path46"/><path style="clip-rule:evenodd;opacity:1;fill-rule:evenodd;stroke-width:0.217495;image-rendering:optimizeQuality;shape-rendering:geometricPrecision;text-rendering:geometricPrecision" fill="#c34242" d="m 13.220358,8.9308012 c 0.145005,0 0.289987,0 0.434992,0 0.419462,-0.058545 0.781961,0.050204 1.087476,0.3262437 -0.202183,0.2154719 -0.455914,0.3242207 -0.761233,0.3262428 -0.494737,0.048378 -0.748468,-0.1691237 -0.761235,-0.6524865 z" id="path47"/><path style="clip-rule:evenodd;opacity:1;fill-rule:evenodd;stroke-width:0.217495;image-rendering:optimizeQuality;shape-rendering:geometricPrecision;text-rendering:geometricPrecision" fill="#371c17" d="m 16.700286,9.3657928 c 0.167014,0.1658392 0.275762,0.383335 0.326243,0.6524852 0.108442,0.794207 0.144699,1.591698 0.108747,2.39245 -0.330549,-0.519857 -0.548045,-1.099831 -0.652486,-1.739963 -1.131847,-0.106398 -2.074341,0.256079 -2.82744,1.087477 -0.166429,-0.241834 -0.383923,-0.386838 -0.652487,-0.434991 1.321741,-0.479664 2.554223,-1.13215 3.697423,-1.9574582 z" id="path48"/><path style="clip-rule:evenodd;opacity:1;fill-rule:evenodd;stroke-width:0.217495;image-rendering:optimizeQuality;shape-rendering:geometricPrecision;text-rendering:geometricPrecision" fill="#531817" d="m 16.700286,9.3657928 c -1.1432,0.8253082 -2.375682,1.4777942 -3.697423,1.9574582 -0.145004,0 -0.289987,0 -0.43499,0 -1.005374,0.237462 -1.404108,-0.125016 -1.196225,-1.087477 0.145895,-0.163644 0.327135,-0.2361567 0.543738,-0.217496 0.411088,0.319632 0.882335,0.537128 1.41372,0.652487 0.516574,-0.06912 0.770304,-0.359107 0.761235,-0.8699815 0.362499,0 0.724977,0 1.087477,0 0,-0.2174958 0,-0.4349907 0,-0.6524865 0.501457,0.1071382 1.008961,0.1796295 1.522468,0.2174958 z" id="path49"/><path style="clip-rule:evenodd;opacity:1;fill-rule:evenodd;stroke-width:0.217495;image-rendering:optimizeQuality;shape-rendering:geometricPrecision;text-rendering:geometricPrecision" fill="#472d20" d="m 21.26769,10.45327 c 0.07249,0.145004 0.145004,0.289986 0.217494,0.43499 0.140611,0.360194 0.285594,0.722694 0.434992,1.087478 -0.07249,0.145003 -0.145004,0.289986 -0.217496,0.43499 -0.46879,-0.541454 -1.048762,-0.903933 -1.739963,-1.087477 -0.179977,0.934274 -0.288725,1.876746 -0.326243,2.82744 -0.407913,-0.539802 -0.806647,-1.047284 -1.196225,-1.522468 0.258341,-1.025403 0.18585,-2.040367 -0.217496,-3.0449353 0.655922,0.074078 1.235918,0.3278309 1.739964,0.7612343 0.429053,0.107769 0.864044,0.144004 1.304973,0.108748 z" id="path50"/><path style="clip-rule:evenodd;opacity:1;fill-rule:evenodd;stroke-width:0.217495;image-rendering:optimizeQuality;shape-rendering:geometricPrecision;text-rendering:geometricPrecision" fill="#c59661" d="m 10.392918,11.975738 c 0.507482,0 1.014986,0 1.522468,0 0.0999,1.147766 -0.190091,2.162752 -0.869981,3.044935 0.437426,-2.034191 0.07495,-2.21543 -1.0874776,-0.543738 C 8.5812247,15.36175 8.2187253,15.107997 8.87045,13.715701 9.3779323,13.135705 9.8854362,12.555732 10.392918,11.975738 Z" id="path51"/><path style="clip-rule:evenodd;opacity:1;fill-rule:evenodd;stroke-width:0.217495;image-rendering:optimizeQuality;shape-rendering:geometricPrecision;text-rendering:geometricPrecision" fill="#64422e" d="m 17.135276,12.410728 c 0.420898,0.141263 0.855888,0.213754 1.304973,0.217495 0.389578,0.475184 0.788312,0.982666 1.196225,1.522468 0.03751,-0.950694 0.146266,-1.893166 0.326243,-2.82744 0.691201,0.183544 1.271173,0.546023 1.739963,1.087477 0.07249,-0.145004 0.145005,-0.289987 0.217496,-0.43499 -0.149398,-0.364784 -0.294381,-0.727284 -0.434992,-1.087478 0.383315,0.165797 0.60081,0.455784 0.652487,0.869982 0.09096,0.563226 0.308452,1.070708 0.652487,1.522468 -0.789553,0.338183 -1.587043,0.410675 -2.39245,0.217495 -0.289987,0.3625 -0.289987,0.724978 0,1.087478 0.145004,-0.145005 0.289986,-0.289987 0.434991,-0.434992 0.161337,0.402301 0.378833,0.547306 0.652485,0.434992 -0.965396,0.254535 -1.037887,0.580777 -0.217494,0.978729 -0.303798,0.742464 -0.593807,1.503698 -0.869982,2.283702 0.255448,1.014376 0.436687,2.029362 0.543738,3.044936 -0.368154,1.093132 -1.093131,1.818044 -2.174954,2.174954 -0.105007,0.206186 -0.141263,0.423681 -0.108748,0.652486 -0.631194,0.23446 -1.283679,0.379312 -1.957458,0.434991 -0.09531,0.01413 -0.16782,-0.02197 -0.217496,-0.108748 1.216843,-1.444387 1.760582,-3.075602 1.631216,-4.893647 0.181238,0.217496 0.362499,0.434991 0.543738,0.652486 0.612359,-1.463308 0.793619,-2.985776 0.543739,-4.567404 -0.458002,-0.408151 -0.747989,-0.915655 -0.869982,-1.522467 -0.864762,-0.321154 -1.480992,-0.901149 -1.848711,-1.739963 -0.729762,0.294749 -1.237244,0.802253 -1.522468,1.522467 -0.195333,0.52312 -0.521576,0.958112 -0.978729,1.304973 0.329331,-1.038476 0.474336,-2.125953 0.43499,-3.262432 -0.53158,0.447171 -0.930314,0.99091 -1.196225,1.631216 -0.206185,0.105007 -0.423681,0.141263 -0.652485,0.108748 0,-0.652487 0,-1.304972 0,-1.957459 0.145003,0 0.289986,0 0.43499,0 0.268564,0.04815 0.486058,0.193157 0.652487,0.434991 0.753099,-0.831398 1.695593,-1.193875 2.82744,-1.087477 0.104441,0.640132 0.321937,1.220106 0.652486,1.739963 z" id="path52"/><path style="clip-rule:evenodd;opacity:1;fill-rule:evenodd;stroke-width:0.217495;image-rendering:optimizeQuality;shape-rendering:geometricPrecision;text-rendering:geometricPrecision" fill="#af8051" d="M 13.220358,24.372976 C 10.578072,23.757464 8.5118653,22.30764 7.021739,20.023068 6.9144049,19.667658 6.8781485,19.305159 6.9129914,18.935591 c 0.072491,0 0.145004,0 0.2174952,0 0.3245901,2.042934 1.4845588,2.768064 3.4799264,2.174954 0.441364,-0.512963 0.876355,-1.020445 1.304973,-1.522468 0.681913,-1.291966 1.044413,-2.66943 1.087477,-4.132413 0.244138,-0.388969 0.280373,-0.82396 0.108747,-1.304973 -0.08322,0.120928 -0.19196,0.193419 -0.326242,0.217496 0.03802,-0.509896 0.29177,-0.872374 0.761234,-1.087477 0.03884,0.664122 0.147592,1.316608 0.326243,1.957458 0.351494,-0.133802 0.641502,-0.351298 0.869981,-0.652485 0.387339,0.984819 0.496086,1.999805 0.326244,3.044935 -0.395385,0.904411 -0.794119,1.810649 -1.196225,2.718693 0.0793,0.491757 0.224303,0.962853 0.434991,1.41372 -0.126822,0.326679 -0.30806,0.6166 -0.543739,0.869982 -4.9457151,-0.575492 -4.9819499,-0.03175 -0.108747,1.631215 -0.12928,0.100919 -0.274284,0.13724 -0.434992,0.108748 z" id="path53"/><path style="clip-rule:evenodd;opacity:1;fill-rule:evenodd;stroke-width:0.217495;image-rendering:optimizeQuality;shape-rendering:geometricPrecision;text-rendering:geometricPrecision" fill="#6e4b37" d="m 22.137671,11.758242 c 0.07249,0 0.145004,0 0.217496,0 0.1283,0.275349 0.237048,0.565336 0.326243,0.869981 0.43499,0.145005 0.724977,0.434991 0.869982,0.869982 0.724977,1.594959 0.724977,3.18994 0,4.784899 -0.482231,1.301254 -1.098461,2.533822 -1.848712,3.697423 -0.390709,0.521989 -0.898212,0.884554 -1.522468,1.087477 -0.53369,0.158119 -1.041194,0.375615 -1.522468,0.652486 -0.03252,-0.228805 0.0037,-0.4463 0.108748,-0.652486 1.081823,-0.35691 1.8068,-1.081822 2.174954,-2.174954 -0.107051,-1.015574 -0.28829,-2.03056 -0.543738,-3.044936 0.276175,-0.780004 0.566184,-1.541238 0.869982,-2.283702 -0.820393,-0.397952 -0.747902,-0.724194 0.217494,-0.978729 -0.273652,0.112314 -0.491148,-0.03269 -0.652485,-0.434992 -0.145005,0.145005 -0.289987,0.289987 -0.434991,0.434992 -0.289987,-0.3625 -0.289987,-0.724978 0,-1.087478 0.805407,0.19318 1.602897,0.120688 2.39245,-0.217495 -0.344035,-0.45176 -0.56153,-0.959242 -0.652487,-1.522468 z" id="path54"/><path style="clip-rule:evenodd;opacity:1;fill-rule:evenodd;stroke-width:0.217495;image-rendering:optimizeQuality;shape-rendering:geometricPrecision;text-rendering:geometricPrecision" fill="#9c6d47" d="m 11.915386,9.8007835 c 0,0.072487 0,0.1450035 0,0.2174945 -0.216603,-0.018668 -0.397843,0.05385 -0.543738,0.217496 -0.207883,0.962461 0.190851,1.324939 1.196225,1.087477 0,0.652487 0,1.304972 0,1.957459 0.228804,0.03252 0.4463,-0.0038 0.652485,-0.108748 0.265911,-0.640306 0.664645,-1.184045 1.196225,-1.631216 0.03934,1.136479 -0.105659,2.223956 -0.43499,3.262432 0.457153,-0.346861 0.783396,-0.781853 0.978729,-1.304973 0.217496,0 0.434991,0 0.652487,0 -0.04186,0.764019 0.103113,1.489017 0.43499,2.174954 0.302536,-0.248945 0.592523,-0.248945 0.869982,0 -0.133172,0.325222 -0.133172,0.687699 0,1.087477 -0.453174,2.082388 -1.033169,4.112404 -1.739963,6.089873 0.703097,1.007873 0.413088,1.479186 -0.869982,1.413719 0.838989,0.176172 1.636479,0.139851 2.39245,-0.108747 0.673779,-0.05568 1.326264,-0.200531 1.957458,-0.434991 0.481274,-0.276871 0.988778,-0.494367 1.522468,-0.652486 -0.859846,0.75558 -1.87481,1.226674 -3.044936,1.41372 -1.344383,0.178129 -2.649355,0.142025 -3.914918,-0.108748 0.160708,0.0285 0.305712,-0.0078 0.434992,-0.108748 -4.8732029,-1.66297 -4.8369681,-2.206707 0.108747,-1.631215 0.235679,-0.253382 0.416917,-0.543303 0.543739,-0.869982 -0.210688,-0.450867 -0.355692,-0.921963 -0.434991,-1.41372 0.402106,-0.908044 0.80084,-1.814282 1.196225,-2.718693 0.169842,-1.04513 0.0611,-2.060116 -0.326244,-3.044935 -0.228479,0.301187 -0.518487,0.518683 -0.869981,0.652485 -0.178651,-0.64085 -0.287399,-1.293336 -0.326243,-1.957458 -0.469464,0.215103 -0.723217,0.577581 -0.761234,1.087477 -0.403259,0.654553 -0.910741,1.234548 -1.522468,1.739964 -0.207034,-0.336096 -0.279525,-0.698596 -0.217495,-1.087478 0.67989,-0.882183 0.969876,-1.897169 0.869981,-3.044935 -0.507482,0 -1.014986,0 -1.522468,0 0.1718,-0.281484 0.389295,-0.535235 0.652487,-0.761235 -0.225347,-0.386162 -0.225347,-0.784919 0,-1.196225 0.262712,-0.1596623 0.552721,-0.2321537 0.869981,-0.2174945 z" id="path55"/><path style="clip-rule:evenodd;opacity:1;fill-rule:evenodd;stroke-width:0.217495;image-rendering:optimizeQuality;shape-rendering:geometricPrecision;text-rendering:geometricPrecision" fill="#d4ac72" d="m 11.045405,15.020673 c -0.06203,0.388882 0.01047,0.751382 0.217495,1.087478 0.611727,-0.505416 1.119209,-1.085411 1.522468,-1.739964 0.134282,-0.02408 0.24303,-0.09657 0.326242,-0.217496 0.171626,0.481013 0.135391,0.916004 -0.108747,1.304973 -0.664514,1.727088 -1.534496,3.358304 -2.609945,4.893647 -0.228152,0.107051 -0.4456482,0.07082 -0.6524863,-0.108748 -0.4819042,-1.314564 -1.3156294,-2.32955 -2.5011974,-3.044936 -0.1081819,0.575494 -0.1444383,1.155489 -0.1087477,1.739964 -0.072491,0 -0.145004,0 -0.2174952,0 -0.035997,-0.872984 2.609e-4,-1.742965 0.1087476,-2.609945 0.5864549,-0.909196 1.202706,-1.779178 1.848711,-2.609945 -0.6517247,1.392296 -0.2892253,1.646049 1.0874774,0.761234 1.1624256,-1.671692 1.5249036,-1.490453 1.0874776,0.543738 z" id="path56"/><path style="clip-rule:evenodd;opacity:1;fill-rule:evenodd;stroke-width:0.217495;image-rendering:optimizeQuality;shape-rendering:geometricPrecision;text-rendering:geometricPrecision" fill="#a68054" d="m 22.572662,11.540746 c 1.622951,1.71865 2.16669,3.748599 1.631216,6.089872 -0.448998,1.698465 -1.282723,3.148442 -2.501198,4.349909 0.750251,-1.163601 1.366481,-2.396169 1.848712,-3.697423 0.724977,-1.594959 0.724977,-3.18994 0,-4.784899 -0.145005,-0.434991 -0.434992,-0.724977 -0.869982,-0.869982 -0.0892,-0.304645 -0.197943,-0.594632 -0.326243,-0.869981 0,-0.145005 0.07249,-0.217496 0.217495,-0.217496 z" id="path57"/><path style="clip-rule:evenodd;opacity:1;fill-rule:evenodd;stroke-width:0.217495;image-rendering:optimizeQuality;shape-rendering:geometricPrecision;text-rendering:geometricPrecision" fill="#83583d" d="m 16.700286,24.155481 c -0.755971,0.248598 -1.553461,0.284919 -2.39245,0.108747 1.28307,0.06546 1.573079,-0.405846 0.869982,-1.413719 0.706794,-1.977469 1.286789,-4.007485 1.739963,-6.089873 -0.133172,-0.399778 -0.133172,-0.762255 0,-1.087477 -0.277459,-0.248945 -0.567446,-0.248945 -0.869982,0 -0.331877,-0.685937 -0.476859,-1.410935 -0.43499,-2.174954 -0.217496,0 -0.434991,0 -0.652487,0 0.285224,-0.720214 0.792706,-1.227718 1.522468,-1.522467 0.367719,0.838814 0.983949,1.418809 1.848711,1.739963 0.121993,0.606812 0.41198,1.114316 0.869982,1.522467 0.24988,1.581628 0.06862,3.104096 -0.543739,4.567404 -0.181239,-0.217495 -0.3625,-0.43499 -0.543738,-0.652486 0.129366,1.818045 -0.414373,3.44926 -1.631216,4.893647 0.04968,0.08678 0.122189,0.122885 0.217496,0.108748 z" id="path58"/><path style="clip-rule:evenodd;opacity:1;fill-rule:evenodd;stroke-width:0.217495;image-rendering:optimizeQuality;shape-rendering:geometricPrecision;text-rendering:geometricPrecision" fill="#c0935f" d="m 13.002863,15.455664 c -0.04306,1.462983 -0.405564,2.840447 -1.087477,4.132413 -0.428618,0.502023 -0.863609,1.009505 -1.304973,1.522468 -1.9953676,0.59311 -3.1553363,-0.13202 -3.4799264,-2.174954 -0.035693,-0.584475 5.673e-4,-1.16447 0.1087477,-1.739964 1.185568,0.715386 2.0192932,1.730372 2.5011974,3.044936 0.2068381,0.179565 0.4243343,0.215799 0.6524863,0.108748 1.075449,-1.535343 1.945431,-3.166559 2.609945,-4.893647 z" id="path59"/><path style="fill:#000000;stroke:#000000;stroke-width:0.0078125;stroke-linecap:round;stroke-linejoin:round" d="M 8.698884,9.3105469 C 8.4577359,9.0685812 8.3058617,8.8095586 8.2497371,8.5445234 8.2288858,8.4460581 8.2215789,8.2745489 8.2337722,8.1697941 8.2737098,7.8266837 8.4581857,7.4627052 8.7850851,7.0820312 8.884293,6.9665037 9.13038,6.7208595 9.265625,6.602356 9.370242,6.5106891 9.6453686,6.2870759 9.7088176,6.2421446 c 0.01817,-0.012867 0.033111,-0.026277 0.033203,-0.029801 9.17e-5,-0.00352 -0.015135,-0.031648 -0.033836,-0.0625 C 9.416845,5.6692258 9.2426716,5.1356195 9.1952303,4.5783312 9.185483,4.463831 9.1837062,4.1643695 9.1919773,4.0300577 c 0.00511,-0.082973 0.00711,-0.091251 0.02852,-0.1182325 C 9.3330513,3.7700083 10.248601,2.8362499 10.59015,2.5149328 11.021926,2.1087334 11.415034,1.7593912 11.832349,1.411031 l 0.185207,-0.1546038 0.204112,-0.02852 c 0.316074,-0.044163 0.874714,-0.1068138 0.952435,-0.1068138 0.02005,0 -0.0026,0.018194 -0.14351,0.1153772 C 12.760347,1.4228305 12.479088,1.6255553 12.28125,1.7765794 11.497799,2.3746434 10.876119,2.9104856 10.227403,3.5468438 10.071824,3.699459 10.067291,3.7048113 10.034154,3.7750266 9.8672555,4.1286705 9.7796615,4.5454799 9.791498,4.9296872 9.803701,5.3257863 9.89524,5.6693724 10.093812,6.0644023 l 0.07557,0.1503401 -0.03997,0.072316 C 9.9198347,6.6663023 9.6274554,7.0276649 9.2953739,7.3178877 L 9.1884041,7.411374 9.1183357,7.5533433 C 9.0078969,7.777109 8.9376912,7.9748056 8.8975915,8.17495 c -0.023771,0.1186469 -0.02901,0.3161032 -0.011248,0.4239509 0.053598,0.3254335 0.249506,0.572135 0.6000992,0.7556897 l 0.076287,0.039941 H 9.1726571 8.7825846 Z" id="path60"/><path style="fill:#000000;stroke:#000000;stroke-width:0.00390625;stroke-linecap:round;stroke-linejoin:round" d="m 9.0202167,12.686523 c 0.00319,-0.0038 0.051086,-0.05828 0.1064327,-0.121149 0.3323517,-0.377546 0.6795822,-0.750885 1.0495076,-1.128424 l 0.111705,-0.114003 0.02372,-0.05991 c 0.03827,-0.09666 0.06336,-0.192901 0.07569,-0.29038 0.0062,-0.04913 0.0061,-0.184609 -1.38e-4,-0.228515 -0.02396,-0.167705 -0.07936,-0.311755 -0.178215,-0.463372 -0.03335,-0.05114 -0.01433,-0.03871 -0.156851,-0.102573 C 9.5373496,9.9475449 9.0972578,9.6788033 8.8046875,9.4164843 l -0.017578,-0.015761 0.3893229,-1.665e-4 c 0.2141276,-9.16e-5 0.3899088,-0.00167 0.390625,-0.00351 7.161e-4,-0.00184 0.027669,0.00787 0.059896,0.021576 0.1389523,0.05909 0.3200238,0.1157493 0.4902346,0.1533992 l 0.05273,0.011665 0.436159,0.2177251 0.436158,0.2177259 -0.02715,0.0542 c -0.06607,0.131898 -0.10838,0.261479 -0.12909,0.395408 -0.0069,0.04459 -0.0085,0.07272 -0.0088,0.152344 -3.07e-4,0.10221 0.0021,0.129353 0.01959,0.216797 0.02288,0.114703 0.07564,0.25514 0.131923,0.351173 0.008,0.01364 0.01402,0.02516 0.0134,0.02559 -6.26e-4,4.36e-4 -0.01872,0.01641 -0.0402,0.03549 -0.238527,0.211856 -0.439004,0.448245 -0.601832,0.70964 -0.0063,0.01011 -0.152074,0.179184 -0.323949,0.375722 l -0.3124998,0.357343 -0.3746289,2.54e-4 c -0.3564101,2.42e-4 -0.3743467,-7.8e-5 -0.3688263,-0.0066 z" id="path61"/><path style="fill:#000000;stroke:#000000;stroke-width:0.0078125;stroke-linecap:round;stroke-linejoin:round" d="m 6.7071217,19.353255 -0.1874096,-0.09553 -0.00493,-0.03511 c -0.025769,-0.183434 -0.037232,-1.593539 -0.016449,-2.023395 0.011936,-0.246869 0.030232,-0.564929 0.040897,-0.710938 0.013397,-0.183426 0.046809,-0.565652 0.051128,-0.584894 0.00423,-0.01884 0.2333005,-0.36344 0.4291469,-0.645575 0.5864733,-0.844867 1.2376519,-1.685135 1.8998083,-2.451473 l 0.093079,-0.107724 0.3663493,4.5e-4 c 0.2014922,2.47e-4 0.3673605,0.0015 0.3685962,0.0027 0.00124,0.0012 -0.2006863,0.234441 -0.4487158,0.518234 -0.3515531,0.402243 -0.4877857,0.564341 -0.6180076,0.735343 -0.3982492,0.522965 -0.7615309,1.026457 -1.1314193,1.568098 -0.1257765,0.18418 -0.4799202,0.717907 -0.5157906,0.777344 -0.029937,0.0496 -0.088594,0.648351 -0.1209277,1.234375 -0.00713,0.12926 -0.01013,0.439655 -0.01013,1.048829 0,0.475879 -0.00176,0.865136 -0.00391,0.865016 -0.00215,-1.2e-4 -0.088241,-0.04321 -0.1913151,-0.09575 z" id="path62"/><path style="fill:#000000;stroke:#000000;stroke-width:0.015625;stroke-linecap:round;stroke-linejoin:round" d="m 14.984375,24.981951 c -1.032892,-0.05356 -1.955366,-0.188401 -2.992188,-0.437378 -0.290717,-0.06981 -0.304491,-0.075 -0.664062,-0.25005 C 10.755822,24.015906 10.386443,23.806575 9.8984375,23.484302 8.911775,22.832724 8.0283849,22.03886 7.2643747,21.117187 7.0340049,20.839278 6.8861116,20.642129 6.9036252,20.636292 c 0.00875,-0.0029 0.044619,0.0093 0.079701,0.02724 0.035082,0.0179 0.2119035,0.09572 0.3929359,0.172948 0.2588943,0.110438 0.3380773,0.151155 0.3709749,0.190762 0.4042194,0.486652 0.8933529,0.977125 1.3621376,1.365869 0.9391804,0.778823 2.1303664,1.410751 3.3671874,1.786303 0.542038,0.164586 0.909089,0.244047 1.476563,0.319653 0.538321,0.07172 0.883237,0.09278 1.523437,0.09301 1.133937,4.02e-4 1.903186,-0.09905 2.647346,-0.342258 0.634992,-0.20753 1.168062,-0.488394 1.761797,-0.928257 l 0.04977,-0.03687 0.301795,0.105887 c 0.165987,0.05824 0.319296,0.112423 0.340687,0.120411 0.03664,0.01368 0.02986,0.02038 -0.117187,0.115654 -1.396855,0.905081 -3.133644,1.376141 -5.023268,1.362434 -0.201953,-0.0015 -0.405859,-0.0047 -0.453125,-0.0071 z" id="path63"/><path style="fill:#000000;stroke:#000000;stroke-width:0.0078125;stroke-linecap:round;stroke-linejoin:round" d="M 7.6601562,20.952574 C 7.6429687,20.942338 7.5427734,20.896451 7.4375,20.850601 7.3322266,20.804752 7.1828125,20.739127 7.1054687,20.704767 6.9140035,20.61971 6.905309,20.616752 6.8936481,20.632699 6.885728,20.64353 6.8708346,20.626835 6.7913295,20.518 6.6750194,20.358783 6.6056715,20.260725 6.5957453,20.241442 c -0.00421,-0.0082 -0.00984,-0.04125 -0.012502,-0.07347 -0.00266,-0.03223 -0.011926,-0.138418 -0.020584,-0.235981 -0.020147,-0.227032 -0.048971,-0.655312 -0.044411,-0.659872 0.00192,-0.0019 0.087851,0.03871 0.190953,0.0903 0.103102,0.05158 0.189616,0.09163 0.1922532,0.089 0.00264,-0.0026 0.00479,-0.0032 0.00479,-0.0013 0,0.0019 0.00534,0.04661 0.011863,0.09931 0.015632,0.126263 0.037463,0.239529 0.071037,0.368559 l 0.027443,0.105468 0.089971,0.134241 c 0.1342431,0.200297 0.3070004,0.43922 0.4498482,0.622139 0.171672,0.21983 0.1654817,0.209522 0.1037447,0.172757 z" id="path64"/><path style="fill:#000000;stroke:#000000;stroke-width:0.0110485;stroke-linecap:round;stroke-linejoin:round" d="m 20.598952,23.513171 c -0.0067,-0.0076 -0.150842,-0.06255 -0.320408,-0.122061 -0.169566,-0.05951 -0.312108,-0.111828 -0.31676,-0.116263 -0.01368,-0.01304 0.224412,-0.20614 0.273623,-0.221914 0.163609,-0.05244 0.443348,-0.182532 0.610472,-0.283896 0.284583,-0.172604 0.578925,-0.431689 0.788496,-0.694047 0.03398,-0.04254 0.133844,-0.151918 0.221925,-0.243068 0.689758,-0.7138 1.20119,-1.433717 1.636504,-2.303621 0.288722,-0.576967 0.509924,-1.149566 0.674373,-1.74567 0.245173,-0.88872 0.305206,-1.977351 0.157703,-2.859764 l -0.02431,-0.14544 h 0.272888 0.272887 l 0.01265,0.05801 c 0.02617,0.119994 0.07638,0.439437 0.09333,0.593859 0.02931,0.266948 0.03928,0.456121 0.03938,0.74766 1.51e-4,0.43108 -0.03217,0.816848 -0.104018,1.241492 l -0.03652,0.21586 -0.15069,0.377499 c -0.422152,1.057542 -0.882708,1.955467 -1.415358,2.75946 -0.287147,0.433425 -0.599128,0.844504 -0.918165,1.209815 -0.270748,0.310018 -0.772352,0.795132 -1.104033,1.067739 -0.187227,0.153881 -0.629433,0.480577 -0.647869,0.478637 -0.0022,-2.31e-4 -0.0094,-0.0067 -0.0161,-0.01428 z" id="path65"/><path style="fill:#000000;stroke:#000000;stroke-width:0.015625;stroke-linecap:round;stroke-linejoin:round" d="m 24.274351,14.636719 c -0.04498,-0.212242 -0.1602,-0.603003 -0.242804,-0.823426 -0.28559,-0.762083 -0.739083,-1.493483 -1.326586,-2.139541 -0.06158,-0.06772 -0.169075,-0.197104 -0.238878,-0.287525 -0.202161,-0.261877 -0.387924,-0.471416 -0.637039,-0.718573 L 21.597067,10.4375 21.48994,9.7899933 21.382812,9.1424866 21.070312,8.9906939 C 20.445194,8.6870514 19.837025,8.4505447 19.140625,8.2402719 18.992146,8.1954398 18.857249,8.1448119 18.822534,8.1208897 18.723216,8.0524506 18.611689,7.9145376 18.539808,7.771275 18.450394,7.593067 18.443536,7.5442159 18.482609,7.3638719 18.580559,6.911775 18.554232,6.5201208 18.406151,6.2264586 18.197873,5.8134195 17.7513,5.5609656 17.050781,5.4602506 L 16.921875,5.4417175 V 5.1253512 c 0,-0.2767118 0.0049,-0.3406271 0.03944,-0.5099212 0.04589,-0.2252156 0.11085,-0.6696889 0.124207,-0.849805 0.0051,-0.06875 0.01298,-0.1548828 0.01752,-0.1914063 l 0.0083,-0.066406 h 0.217792 c 0.119786,0 0.217769,0.00527 0.217739,0.011719 -3e-5,0.00645 -0.01026,0.1207032 -0.02274,0.2539063 -0.02336,0.2494197 -0.04668,0.6177465 -0.06439,1.0172295 l -0.01011,0.228167 0.154118,0.05929 c 0.403303,0.1551534 0.758871,0.3735512 1.021913,0.6276834 0.344733,0.3330542 0.545512,0.7066041 0.642476,1.1953253 0.02954,0.1488683 0.03523,0.2297858 0.03586,0.5092388 l 7.44e-4,0.3322465 0.132813,0.040361 c 0.680963,0.2069389 1.636947,0.6640508 2.240499,1.0713136 l 0.123311,0.083208 0.09711,0.2734375 c 0.140894,0.3967366 0.241682,0.6385916 0.416731,0.9999994 0.412104,0.850834 0.873999,1.538296 1.526049,2.271298 0.112755,0.126754 0.180234,0.221715 0.266471,0.375 0.324859,0.577429 0.567318,1.197557 0.717132,1.834171 l 0.01563,0.06641 h -0.27027 -0.270208 z" id="path66"/><path style="fill:#000000;stroke:#000000;stroke-width:0.015625;stroke-linecap:round;stroke-linejoin:round" d="m 17.327911,3.4956769 -0.211152,-0.00432 -7.15e-4,-0.4331768 c -9.45e-4,-0.5719707 -0.0435,-1.020595 -0.14263,-1.5034894 -0.02205,-0.1074219 -0.04529,-0.2691406 -0.05164,-0.359375 -0.01946,-0.27643475 -0.100911,-0.42690519 -0.307517,-0.56807281 -0.10111,-0.069085 -0.120986,-0.0762291 -0.287223,-0.103234 C 15.970826,0.4661403 15.780231,0.453125 15.289062,0.453125 c -0.489254,0 -0.68209,0.0130722 -1.032542,0.0699951 -0.194668,0.0316194 -0.191503,0.029951 -0.7896,0.41626885 -0.250026,0.16149435 -0.281911,0.17779855 -0.347704,0.17779855 -0.104057,0 -0.885332,0.090488 -1.033279,0.119675 -0.03546,0.007 0.01209,-0.038067 0.195313,-0.1850834 0.319987,-0.25675705 0.754706,-0.58578848 1.100831,-0.83319987 L 13.6626,0.01806362 14.186769,0.0109916 c 0.711424,-0.00959845 1.461421,0.02084706 2.206828,0.08958444 l 0.30766,0.0283707 0.114215,0.0826528 c 0.504654,0.36519697 0.81601,0.85792296 0.925747,1.46500826 0.04089,0.2262364 0.03634,0.3206433 -0.03484,0.7218297 -0.03583,0.2019531 -0.08605,0.5315084 -0.111597,0.7323452 -0.02555,0.2008367 -0.04854,0.366071 -0.05109,0.3671875 -0.0025,0.00112 -0.09965,8.43e-5 -0.215785,-0.00229 z" id="path67"/></svg>